<svg baseProfile="full" height="216px" preserveAspectRatio="xMidYMid meet" style="font-family: times, serif; font-weight: normal; font-style: normal; font-size: 16px" version="1.1" viewBox="0,0,248.0,216.0" width="248px" xmlns="http://www.w3.org/2000/svg" xmlns:ev="http://www.w3.org/2001/xml-events" xmlns:xlink="http://www.w3.org/1999/xlink">

    <style>
        text.nltk-tree-node { fill: #0000FF; font-family: Arial, sans-serif; }
        text.nltk-tree-leaf { fill: #008000; font-family: Arial, sans-serif; }
        line { stroke: #000000; }
    </style>
    <defs /><svg width="100%" x="0" y="0px"><defs /><text text-anchor="middle" x="50%" y="16px">S</text></svg><svg width="35.4839%" x="0%" y="48px"><defs /><svg width="100%" x="0" y="0px"><defs /><text text-anchor="middle" x="50%" y="16px">NP</text></svg><svg width="45.4545%" x="0%" y="48px"><defs /><svg width="100%" x="0" y="0px"><defs /><text text-anchor="middle" x="50%" y="16px">Det</text></svg><svg width="100%" x="0%" y="48px"><defs /><svg width="100%" x="0" y="0px"><defs /><text text-anchor="middle" x="50%" y="16px">The</text></svg></svg><line stroke="black" x1="50%" x2="50%" y1="20px" y2="48px" /></svg><line stroke="black" x1="50%" x2="22.7273%" y1="20px" y2="48px" /><svg width="54.5455%" x="45.4545%" y="48px"><defs /><svg width="100%" x="0" y="0px"><defs /><text text-anchor="middle" x="50%" y="16px">N</text></svg><svg width="100%" x="0%" y="48px"><defs /><svg width="100%" x="0" y="0px"><defs /><text text-anchor="middle" x="50%" y="16px">jury</text></svg></svg><line stroke="black" x1="50%" x2="50%" y1="20px" y2="48px" /></svg><line stroke="black" x1="50%" x2="72.7273%" y1="20px" y2="48px" /></svg><line stroke="black" x1="50%" x2="17.7419%" y1="20px" y2="48px" /><svg width="64.5161%" x="35.4839%" y="48px"><defs /><svg width="100%" x="0" y="0px"><defs /><text text-anchor="middle" x="50%" y="16px">VP</text></svg><svg width="35%" x="0%" y="48px"><defs /><svg width="100%" x="0" y="0px"><defs /><text text-anchor="middle" x="50%" y="16px">V</text></svg><svg width="100%" x="0%" y="48px"><defs /><svg width="100%" x="0" y="0px"><defs /><text text-anchor="middle" x="50%" y="16px">found</text></svg></svg><line stroke="black" x1="50%" x2="50%" y1="20px" y2="48px" /></svg><line stroke="black" x1="50%" x2="17.5%" y1="20px" y2="48px" /><svg width="25%" x="35%" y="48px"><defs /><svg width="100%" x="0" y="0px"><defs /><text text-anchor="middle" x="50%" y="16px">NP</text></svg><svg width="100%" x="0%" y="48px"><defs /><svg width="100%" x="0" y="0px"><defs /><text text-anchor="middle" x="50%" y="16px">Pro</text></svg><svg width="100%" x="0%" y="48px"><defs /><svg width="100%" x="0" y="0px"><defs /><text text-anchor="middle" x="50%" y="16px">him</text></svg></svg><line stroke="black" x1="50%" x2="50%" y1="20px" y2="48px" /></svg><line stroke="black" x1="50%" x2="50%" y1="20px" y2="48px" /></svg><line stroke="black" x1="50%" x2="47.5%" y1="20px" y2="48px" /><svg width="40%" x="60%" y="48px"><defs /><svg width="100%" x="0" y="0px"><defs /><text text-anchor="middle" x="50%" y="16px">AdjP</text></svg><svg width="100%" x="0%" y="48px"><defs /><svg width="100%" x="0" y="0px"><defs /><text text-anchor="middle" x="50%" y="16px">Adj</text></svg><svg width="100%" x="0%" y="48px"><defs /><svg width="100%" x="0" y="0px"><defs /><text text-anchor="middle" x="50%" y="16px">guilty</text></svg></svg><line stroke="black" x1="50%" x2="50%" y1="20px" y2="48px" /></svg><line stroke="black" x1="50%" x2="50%" y1="20px" y2="48px" /></svg><line stroke="black" x1="50%" x2="80%" y1="20px" y2="48px" /></svg><line stroke="black" x1="50%" x2="67.7419%" y1="20px" y2="48px" /></svg>