<svg baseProfile="full" height="168px" preserveAspectRatio="xMidYMid meet" style="font-family: times, serif; font-weight: normal; font-style: normal; font-size: 16px" version="1.1" viewBox="0,0,144.0,168.0" width="144px" xmlns="http://www.w3.org/2000/svg" xmlns:ev="http://www.w3.org/2001/xml-events" xmlns:xlink="http://www.w3.org/1999/xlink">

    <style>
        text.nltk-tree-node { fill: #0000FF; font-family: Arial, sans-serif; }
        text.nltk-tree-leaf { fill: #008000; font-family: Arial, sans-serif; }
        line { stroke: #000000; }
    </style>
    <defs /><svg width="100%" x="0" y="0px"><defs /><text text-anchor="middle" x="50%" y="16px">S</text></svg><svg width="55.5556%" x="0%" y="48px"><defs /><svg width="100%" x="0" y="0px"><defs /><text text-anchor="middle" x="50%" y="16px">NP</text></svg><svg width="50%" x="0%" y="48px"><defs /><svg width="100%" x="0" y="0px"><defs /><text text-anchor="middle" x="50%" y="16px">Det</text></svg><svg width="100%" x="0%" y="48px"><defs /><svg width="100%" x="0" y="0px"><defs /><text text-anchor="middle" x="50%" y="16px">The</text></svg></svg><line stroke="black" x1="50%" x2="50%" y1="20px" y2="48px" /></svg><line stroke="black" x1="50%" x2="25%" y1="20px" y2="48px" /><svg width="50%" x="50%" y="48px"><defs /><svg width="100%" x="0" y="0px"><defs /><text text-anchor="middle" x="50%" y="16px">N</text></svg><svg width="100%" x="0%" y="48px"><defs /><svg width="100%" x="0" y="0px"><defs /><text text-anchor="middle" x="50%" y="16px">dog</text></svg></svg><line stroke="black" x1="50%" x2="50%" y1="20px" y2="48px" /></svg><line stroke="black" x1="50%" x2="75%" y1="20px" y2="48px" /></svg><line stroke="black" x1="50%" x2="27.7778%" y1="20px" y2="48px" /><svg width="44.4444%" x="55.5556%" y="48px"><defs /><svg width="100%" x="0" y="0px"><defs /><text text-anchor="middle" x="50%" y="16px">VP</text></svg><svg width="100%" x="0%" y="48px"><defs /><svg width="100%" x="0" y="0px"><defs /><text text-anchor="middle" x="50%" y="16px">V</text></svg><svg width="100%" x="0%" y="48px"><defs /><svg width="100%" x="0" y="0px"><defs /><text text-anchor="middle" x="50%" y="16px">barked</text></svg></svg><line stroke="black" x1="50%" x2="50%" y1="20px" y2="48px" /></svg><line stroke="black" x1="50%" x2="50%" y1="20px" y2="48px" /></svg><line stroke="black" x1="50%" x2="77.7778%" y1="20px" y2="48px" /></svg>