<svg baseProfile="full" height="120px" preserveAspectRatio="xMidYMid meet" style="font-family: times, serif; font-weight: normal; font-style: normal; font-size: 16px" version="1.1" viewBox="0,0,184.0,120.0" width="184px" xmlns="http://www.w3.org/2000/svg" xmlns:ev="http://www.w3.org/2001/xml-events" xmlns:xlink="http://www.w3.org/1999/xlink">

    <style>
        text.nltk-tree-node { fill: #0000FF; font-family: Arial, sans-serif; }
        text.nltk-tree-leaf { fill: #008000; font-family: Arial, sans-serif; }
        line { stroke: #000000; }
    </style>
    <defs /><svg width="100%" x="0" y="0px"><defs /><text text-anchor="middle" x="50%" y="16px">VP</text></svg><svg width="21.7391%" x="0%" y="48px"><defs /><svg width="100%" x="0" y="0px"><defs /><text text-anchor="middle" x="50%" y="16px">Aux</text></svg><svg width="100%" x="0%" y="48px"><defs /><svg width="100%" x="0" y="0px"><defs /><text text-anchor="middle" x="50%" y="16px">is</text></svg></svg><line stroke="black" x1="50%" x2="50%" y1="20px" y2="48px" /></svg><line stroke="black" x1="50%" x2="10.8696%" y1="20px" y2="48px" /><svg width="30.4348%" x="21.7391%" y="48px"><defs /><svg width="100%" x="0" y="0px"><defs /><text text-anchor="middle" x="50%" y="16px">Aux</text></svg><svg width="100%" x="0%" y="48px"><defs /><svg width="100%" x="0" y="0px"><defs /><text text-anchor="middle" x="50%" y="16px">being</text></svg></svg><line stroke="black" x1="50%" x2="50%" y1="20px" y2="48px" /></svg><line stroke="black" x1="50%" x2="36.9565%" y1="20px" y2="48px" /><svg width="47.8261%" x="52.1739%" y="48px"><defs /><svg width="100%" x="0" y="0px"><defs /><text text-anchor="middle" x="50%" y="16px">V</text></svg><svg width="100%" x="0%" y="48px"><defs /><svg width="100%" x="0" y="0px"><defs /><text text-anchor="middle" x="50%" y="16px">renovated</text></svg></svg><line stroke="black" x1="50%" x2="50%" y1="20px" y2="48px" /></svg><line stroke="black" x1="50%" x2="76.087%" y1="20px" y2="48px" /></svg>